<svg width="158" height="35" viewBox="0 0 158 35" fill="none" xmlns="http://www.w3.org/2000/svg">
<path fill-rule="evenodd" clip-rule="evenodd" d="M132.266 0.667969H137.737V34.2033H132.266V0.667969ZM25.7342 0.667969H20.2633V34.2033H25.7342V0.667969ZM0 14.7005H5.47093V8.06379H10.9419V26.8068H5.47093V20.17H0V14.7005ZM18.3384 0.667969H12.8667V34.2033H18.3384V0.667969ZM152.529 14.7005H158V20.17H152.529V14.7005ZM147.007 8.06379H152.529V26.8068H147.007V8.06379ZM139.612 0.667969H145.133V34.2033H139.612V0.667969Z" fill="#E74630"/>
<path fill-rule="evenodd" clip-rule="evenodd" d="M78.9718 7.30664C105.465 7.30664 126.893 7.50891 126.893 7.71192C126.893 7.9142 105.465 8.11647 78.9718 8.11647C52.5285 8.11647 31.0508 7.9142 31.0508 7.71192C31.0508 7.50891 52.5292 7.30664 78.9718 7.30664ZM78.9718 26.7587C105.465 26.7587 126.893 26.9609 126.893 27.1632C126.893 27.3655 105.465 27.5677 78.9718 27.5677C52.5285 27.5677 31.0508 27.3655 31.0508 27.1632C31.0508 26.9609 52.5292 26.7587 78.9718 26.7587Z" fill="#E74630"/>
<path d="M34.796 24.7266V19.5337H43.6216V15.7896H34.796V13.5609H43.9559V9.79442H30.6061V24.7266H34.796ZM53.705 24.7266V9.79442H49.515V24.7266H53.705ZM68.6381 24.7266V13.5609H73.8978V9.79442H59.1663V13.5609H64.4482V24.7266H68.6381ZM93.6752 24.7266V20.9601H85.2285V20.6704L93.5415 13.5609V9.79442H79.3894V13.5609H87.2121V13.8506L79.2557 20.9601V24.7266H93.6752ZM103.175 24.7266L104.334 21.963H111.421L112.558 24.7266H117.372L110.909 9.79442H104.914L98.4728 24.7266H103.175ZM106.786 16.1016L107.744 13.5832H108.034L109.014 16.1016L109.884 18.1965H105.917L106.786 16.1016ZM126.468 24.7266V9.79442H122.278V24.7266H126.468Z" fill="black"/>
</svg>
